# xmcd
#
# Track frame offsets:
#  150
#  11894
#  25990
#  39713
#  51755
#  63627
#  74434
#  87552
#  101240
#  115216
#  127626
#  139348
#  159010
#  170755
#  182555
#  193592
#
# Disc length: 2779 seconds
#
# Revision: 0
# Processed by: cddbd v1.5.1PL0 Copyright (c) Steve Scherf et al.
# Submitted via: Collectorz.com_Music_Collector 6.9
#
DISCID=e40ad910
DTITLE=Dick rivers - Bye bye lily
DYEAR=1900
DGENRE=
TTITLE0=Bye bye Lily
TTITLE1=Lordy
TTITLE2=Pardon si tu m'aimes
TTITLE3=ring
TTITLE4=l'amour sans toi
TTITLE5=pour l'impossible
TTITLE6=fais justice toi-meme
TTITLE7=mari et femme
TTITLE8=woah woah woah
TTITLE9=mama
TTITLE10=pour toi, j'ai tout réinventé
TTITLE11=l'homme qui se rappelle
TTITLE12=mes yeux ne pleurez pas
TTITLE13=femme
TTITLE14=mal de ne plus t'aimer
TTITLE15=sorina
EXTD=
EXTT0=
EXTT1=
EXTT2=
EXTT3=
EXTT4=
EXTT5=
EXTT6=
EXTT7=
EXTT8=
EXTT9=
EXTT10=
EXTT11=
EXTT12=
EXTT13=
EXTT14=
EXTT15=
PLAYORDER=
